<?xml version="1.0" encoding="UTF-8"?>
<svg id="_レイヤー_3" data-name=" レイヤー 3" xmlns="http://www.w3.org/2000/svg" viewBox="0 0 595.29 114.11">
  <defs>
    <style>
      .cls-1 {
        fill: #f2b2f5;
      }

      .cls-2 {
        fill: #fadefc;
      }

      .cls-3 {
        fill: #f2c6f5;
      }
    </style>
  </defs>
  <path class="cls-3" d="M595.28,75.57V20.65c-25.18,21.21-142.42,18.16-141.1-9.15-.21-4.35,2.59-8.08,7.53-11.19h-35.99c-5.41,26.11,45.81,51.78,108.29,50.04,6.25,0,12.38-.22,18.34-.65-37.92,49.59-212.37,57.61-278.61,25.47,2.78-11.71-16.18-19.34-32.27-18.05-.81-.66-1.58-1.32-2.34-1.99-14.44.7-29.23.73-43.71.11-.09.66-.2,1.32-.33,1.99-44.61,1.8-79.08,13.7-79.08,28.11,0,4.76,3.77,9.25,10.42,13.19C81.34,108.35,6.93,88.62.37,57h-.37v37.24c23.81,1.29,44.36,7.77,35.55,19.45h83.02c15.85-1.23,29.82-5.14,39.78-10.74-12.74-3.15-21.21-7.97-20.84-14.46-1.42-25.23,130.44-25.22,129,0,.06,1.09-.14,2.13-.56,3.12,10.17,11.73,35.06,20.39,65.06,21.85v.22h185.49c5.9-30.15,44.95-42.86,78.79-38.13v.02Z"/>
  <path class="cls-3" d="M595.28.31h-2.81c1.04.65,1.97,1.33,2.81,2.04V.31Z"/>
  <path class="cls-2" d="M98,114.11h9.91c-3.31,0-6.56-.12-9.73-.34-.05.11-.12.23-.17.34h-.01Z"/>
  <path class="cls-2" d="M265.94,91.62c.41-1,.62-2.03.56-3.12,1.44-25.22-130.42-25.23-129,0-.37,6.49,8.1,11.31,20.84,14.46-9.97,5.6-23.93,9.51-39.78,10.74-3.47.27-7.03.41-10.66.41h129.41c-.06-.14-.14-.28-.21-.41h93.9v-.22c-30-1.46-54.89-10.12-65.06-21.85h0Z"/>
  <path class="cls-2" d="M0,94.24v19.45h35.55c8.81-11.68-11.74-18.16-35.55-19.45Z"/>
  <path class="cls-1" d="M425.71.31c.02-.1.05-.2.07-.31H0v57h.37c6.56,31.62,80.97,51.35,126.05,41.54-6.65-3.94-10.42-8.43-10.42-13.19,0-14.41,34.47-26.31,79.08-28.11.13-.67.24-1.33.33-1.99,14.48.62,29.27.58,43.71-.11.76.67,1.53,1.33,2.34,1.99,16.09-1.29,35.05,6.34,32.27,18.05,66.25,32.13,240.7,24.12,278.61-25.47-5.96.42-12.09.65-18.34.65-62.47,1.74-113.7-23.93-108.29-50.04h0Z"/>
  <path class="cls-2" d="M595.28,2.35c-.84-.71-1.77-1.39-2.81-2.04-.16-.1-.34-.2-.51-.31h-129.74c-.17.1-.35.2-.51.31-4.95,3.12-7.74,6.85-7.53,11.19-1.32,27.31,115.92,30.36,141.1,9.15V2.35Z"/>
  <path class="cls-1" d="M595.28,75.57c-33.84-4.73-72.89,7.98-78.79,38.13h78.79s0-38.13,0-38.13Z"/>
</svg>